# xmcd
#
# Track frame offsets: 
#        150
#        13100
#        38407
#        55582
#        70542
#        81410
#        95785
#        112057
#        126985
#        137772
#        156570
#        176750
#        198197
#        211377
#        231932
#
# Disc length: 3253 seconds
#
# Revision: 2
# Processed by: cddbd v1.4PL0 Copyright (c) Steve Scherf et al.
# Submitted via: ExactAudioCopy v0.90b4
#
DISCID=d50cb30f
DTITLE=Pepe Ahlqvist - Doggone Blues
DYEAR=1998
DGENRE=
TTITLE0=Black Juice
TTITLE1=Spoonful
TTITLE2=Fishin  Blues
TTITLE3=Doggone Disgusted
TTITLE4=When Booba Play The Blues
TTITLE5=Heikkisen Lato Palaa
TTITLE6=Opinion Song
TTITLE7=Pickin  My Tomatoes
TTITLE8=Poker Waltz
TTITLE9=Love In Vain
TTITLE10=Fat Liver Blues
TTITLE11=Cause I Know
TTITLE12=Texas Girl
TTITLE13=I m Ready
TTITLE14=To Julia
EXTD=
EXTT0=
EXTT1=
EXTT2=
EXTT3=
EXTT4=
EXTT5=
EXTT6=
EXTT7=
EXTT8=
EXTT9=
EXTT10=
EXTT11=
EXTT12=
EXTT13=
EXTT14=
PLAYORDER=
